<?xml version="1.0" encoding="utf-8"?>
<!-- Generator: Adobe Illustrator 22.1.0, SVG Export Plug-In . SVG Version: 6.00 Build 0)  -->
<svg version="1.1" id="Layer_1" xmlns="http://www.w3.org/2000/svg" xmlns:xlink="http://www.w3.org/1999/xlink" x="0px" y="0px"
	 viewBox="0 0 32 32" style="enable-background:new 0 0 32 32;" xml:space="preserve">
<style type="text/css">
	.st0{fill:#EDC80F;}
</style>
<g>
	<path class="st0" d="M25.9,6.5H6.1c-1,0-1.9,0.9-1.9,1.9v0c0,1,0.9,1.9,1.9,1.9h19.7c1,0,1.9-0.9,1.9-1.9v0
		C27.8,7.4,26.9,6.5,25.9,6.5z"/>
	<path class="st0" d="M25.9,14.1H6.1c-1,0-1.9,0.9-1.9,1.9v0c0,1,0.9,1.9,1.9,1.9h19.7c1,0,1.9-0.9,1.9-1.9v0
		C27.8,15,26.9,14.1,25.9,14.1z"/>
	<path class="st0" d="M25.9,21.7H6.1c-1,0-1.9,0.9-1.9,1.9v0c0,1,0.9,1.9,1.9,1.9h19.7c1,0,1.9-0.9,1.9-1.9v0
		C27.8,22.6,26.9,21.7,25.9,21.7z"/>
</g>
</svg>
