<?xml version="1.0" encoding="utf-8"?>
<!-- Generator: Adobe Illustrator 22.1.0, SVG Export Plug-In . SVG Version: 6.00 Build 0)  -->
<svg version="1.1" id="Layer_1" xmlns="http://www.w3.org/2000/svg" xmlns:xlink="http://www.w3.org/1999/xlink" x="0px" y="0px"
	 viewBox="0 0 32 32" style="enable-background:new 0 0 32 32;" xml:space="preserve">
<style type="text/css">
	.st0{fill:#EDC80F;}
</style>
<g>
	<path class="st0" d="M24.3,21.7l-14-14C9.6,7,8.4,7,7.7,7.7l0,0c-0.7,0.7-0.7,2,0,2.7l13.9,13.9c0.7,0.7,2,0.7,2.7,0l0,0
		C25.1,23.7,25.1,22.4,24.3,21.7z"/>
</g>
<path class="st0" d="M21.7,7.7l-14,14c-0.7,0.7-0.7,2,0,2.7l0,0c0.7,0.7,2,0.7,2.7,0l13.9-13.9c0.7-0.7,0.7-2,0-2.7l0,0
	C23.7,6.9,22.4,6.9,21.7,7.7z"/>
</svg>
