<?xml version="1.0" encoding="utf-8"?>
<!-- Generator: Adobe Illustrator 22.1.0, SVG Export Plug-In . SVG Version: 6.00 Build 0)  -->
<svg version="1.1" id="Layer_1" xmlns="http://www.w3.org/2000/svg" xmlns:xlink="http://www.w3.org/1999/xlink" x="0px" y="0px"
	 viewBox="0 0 16 16" style="enable-background:new 0 0 16 16;" xml:space="preserve">
<style type="text/css">
	.st0{fill:#EF5411;}
	.st1{fill:#FFFFFF;}
</style>
<path class="st0" d="M8,2.1c1.1,0,2.2,0.5,3,1.3c0.8,0.9,1.3,1.9,1.3,3.1S11.8,9,11,9.8l-3,3.1L5,9.8C4.2,9,3.7,7.8,3.7,6.5
	c0-1.2,0.4-2.2,1.3-3.1C5.8,2.6,6.9,2.1,8,2.1z"/>
<path class="st1" d="M8,15.8l-4.4-4.6C2.4,10,1.7,8.3,1.7,6.5c0-1.7,0.6-3.2,1.8-4.5C4.8,0.8,6.3,0.2,8,0.2s3.2,0.7,4.4,1.9
	s1.8,2.8,1.8,4.5s-0.7,3.5-1.8,4.7C12.4,11.3,8,15.8,8,15.8z M4,10.7l4,4.1l3.9-4.1c1-1.1,1.6-2.6,1.6-4.2c0-1.5-0.6-2.9-1.6-4
	S9.5,0.8,8,0.8S5.1,1.4,4,2.5C3,3.6,2.4,5,2.4,6.5C2.4,8.1,3,9.7,4,10.7C4,10.7,4,10.7,4,10.7z"/>
<path class="st1" d="M8,16l-4.5-4.7c-1.2-1.2-1.9-3-1.9-4.8c0-1.7,0.6-3.3,1.9-4.6C4.7,0.7,6.3,0,8,0s3.3,0.7,4.5,1.9
	c1.2,1.3,1.9,2.9,1.9,4.6c0,1.8-0.7,3.6-1.9,4.8L8,16z M8,0.3C6.4,0.3,4.8,1,3.7,2.2C2.5,3.4,1.9,4.9,1.9,6.5c0,1.7,0.7,3.4,1.8,4.5
	L8,15.5l4.3-4.5c1.1-1.2,1.8-2.9,1.8-4.5s-0.6-3.1-1.8-4.4C11.1,1,9.6,0.3,8,0.3z M8,15.1l-4.1-4.2c-1-1.2-1.7-2.8-1.7-4.4
	s0.6-3,1.7-4.1S6.5,0.7,8,0.7s3,0.6,4.1,1.7s1.7,2.6,1.7,4.1c0,1.6-0.6,3.2-1.7,4.3C12.1,10.8,8,15.1,8,15.1z M4.2,10.6l3.8,4l3.8-4
	c1-1,1.6-2.6,1.6-4.1s-0.6-2.8-1.6-3.9C10.8,1.6,9.4,1,8,1S5.2,1.6,4.2,2.6C3.2,3.7,2.6,5,2.6,6.5C2.6,8.1,3.2,9.6,4.2,10.6
	L4.2,10.6z"/>
</svg>
